<mxfile host="app.diagrams.net" modified="2020-10-29T17:27:34.942Z" agent="5.0 (Windows NT 10.0; Win64; x64) AppleWebKit/537.36 (KHTML, like Gecko) Chrome/86.0.4240.111 Safari/537.36" etag="SHUkSE_G-1UPcMvXFZdW" version="13.8.7" type="github">
  <diagram id="SAigg0MyCzU5r8fSP_lx" name="Page-1">
    <mxGraphModel dx="813" dy="441" grid="1" gridSize="10" guides="1" tooltips="1" connect="1" arrows="1" fold="1" page="1" pageScale="1" pageWidth="827" pageHeight="1169" math="0" shadow="0">
      <root>
        <mxCell id="0" />
        <mxCell id="1" parent="0" />
        <mxCell id="Al2MoPoiKQMAoQII0xVr-47" value="Decimal" style="ellipse;whiteSpace=wrap;html=1;" vertex="1" parent="1">
          <mxGeometry x="580" y="325" width="70" height="50" as="geometry" />
        </mxCell>
        <mxCell id="Al2MoPoiKQMAoQII0xVr-41" value="Integer" style="ellipse;whiteSpace=wrap;html=1;" vertex="1" parent="1">
          <mxGeometry x="495" y="397.5" width="50" height="45" as="geometry" />
        </mxCell>
        <mxCell id="Al2MoPoiKQMAoQII0xVr-39" value="exponent2" style="ellipse;whiteSpace=wrap;html=1;direction=south;" vertex="1" parent="1">
          <mxGeometry x="480" y="480" width="70" height="50" as="geometry" />
        </mxCell>
        <mxCell id="Al2MoPoiKQMAoQII0xVr-20" value="" style="ellipse;whiteSpace=wrap;html=1;fontSize=11;" vertex="1" parent="1">
          <mxGeometry x="45" y="495" width="50" height="50" as="geometry" />
        </mxCell>
        <mxCell id="Al2MoPoiKQMAoQII0xVr-1" value="S" style="ellipse;whiteSpace=wrap;html=1;" vertex="1" parent="1">
          <mxGeometry x="350" y="400" width="40" height="40" as="geometry" />
        </mxCell>
        <mxCell id="Al2MoPoiKQMAoQII0xVr-2" value="String&lt;br&gt;Start" style="ellipse;whiteSpace=wrap;html=1;aspect=fixed;" vertex="1" parent="1">
          <mxGeometry x="190" y="510" width="45" height="45" as="geometry" />
        </mxCell>
        <mxCell id="Al2MoPoiKQMAoQII0xVr-3" value="" style="endArrow=classic;html=1;exitX=0;exitY=0.5;exitDx=0;exitDy=0;entryX=1;entryY=0;entryDx=0;entryDy=0;" edge="1" parent="1" source="Al2MoPoiKQMAoQII0xVr-1" target="Al2MoPoiKQMAoQII0xVr-2">
          <mxGeometry width="50" height="50" relative="1" as="geometry">
            <mxPoint x="390" y="420" as="sourcePoint" />
            <mxPoint x="280" y="500" as="targetPoint" />
          </mxGeometry>
        </mxCell>
        <mxCell id="Al2MoPoiKQMAoQII0xVr-6" value="&quot;" style="edgeLabel;html=1;align=center;verticalAlign=middle;resizable=0;points=[];fontSize=17;" vertex="1" connectable="0" parent="Al2MoPoiKQMAoQII0xVr-3">
          <mxGeometry x="-0.3462" y="-2" relative="1" as="geometry">
            <mxPoint x="-18.82" as="offset" />
          </mxGeometry>
        </mxCell>
        <mxCell id="Al2MoPoiKQMAoQII0xVr-4" value="HEX2" style="ellipse;whiteSpace=wrap;html=1;" vertex="1" parent="1">
          <mxGeometry x="100" y="555" width="40" height="40" as="geometry" />
        </mxCell>
        <mxCell id="Al2MoPoiKQMAoQII0xVr-5" value="Lomeno" style="ellipse;whiteSpace=wrap;html=1;" vertex="1" parent="1">
          <mxGeometry x="182.5" y="640" width="60" height="40" as="geometry" />
        </mxCell>
        <mxCell id="Al2MoPoiKQMAoQII0xVr-7" value="/" style="endArrow=classic;html=1;fontSize=17;exitX=0.5;exitY=1;exitDx=0;exitDy=0;entryX=0.5;entryY=0;entryDx=0;entryDy=0;" edge="1" parent="1" source="Al2MoPoiKQMAoQII0xVr-2" target="Al2MoPoiKQMAoQII0xVr-5">
          <mxGeometry x="-0.3235" y="-13" width="50" height="50" relative="1" as="geometry">
            <mxPoint x="242.5" y="570" as="sourcePoint" />
            <mxPoint x="292.5" y="520" as="targetPoint" />
            <Array as="points">
              <mxPoint x="213" y="570" />
            </Array>
            <mxPoint as="offset" />
          </mxGeometry>
        </mxCell>
        <mxCell id="Al2MoPoiKQMAoQII0xVr-8" value="" style="endArrow=classic;html=1;fontSize=17;entryX=1;entryY=1;entryDx=0;entryDy=0;exitX=1;exitY=0;exitDx=0;exitDy=0;" edge="1" parent="1" source="Al2MoPoiKQMAoQII0xVr-5" target="Al2MoPoiKQMAoQII0xVr-2">
          <mxGeometry width="50" height="50" relative="1" as="geometry">
            <mxPoint x="235" y="610" as="sourcePoint" />
            <mxPoint x="285" y="560" as="targetPoint" />
            <Array as="points">
              <mxPoint x="240" y="580" />
            </Array>
          </mxGeometry>
        </mxCell>
        <mxCell id="Al2MoPoiKQMAoQII0xVr-9" value="{/,n,t}" style="edgeLabel;html=1;align=center;verticalAlign=middle;resizable=0;points=[];fontSize=17;" vertex="1" connectable="0" parent="Al2MoPoiKQMAoQII0xVr-8">
          <mxGeometry x="-0.1168" y="5" relative="1" as="geometry">
            <mxPoint x="24.66" y="-6" as="offset" />
          </mxGeometry>
        </mxCell>
        <mxCell id="Al2MoPoiKQMAoQII0xVr-11" value="HEX1" style="ellipse;whiteSpace=wrap;html=1;" vertex="1" parent="1">
          <mxGeometry x="100" y="640" width="40" height="40" as="geometry" />
        </mxCell>
        <mxCell id="Al2MoPoiKQMAoQII0xVr-12" value="" style="endArrow=classic;html=1;fontSize=17;entryX=1;entryY=0.5;entryDx=0;entryDy=0;" edge="1" parent="1" target="Al2MoPoiKQMAoQII0xVr-11">
          <mxGeometry width="50" height="50" relative="1" as="geometry">
            <mxPoint x="180" y="660" as="sourcePoint" />
            <mxPoint x="330" y="470" as="targetPoint" />
          </mxGeometry>
        </mxCell>
        <mxCell id="Al2MoPoiKQMAoQII0xVr-13" value="x" style="edgeLabel;html=1;align=center;verticalAlign=middle;resizable=0;points=[];fontSize=17;" vertex="1" connectable="0" parent="Al2MoPoiKQMAoQII0xVr-12">
          <mxGeometry x="-0.4357" y="1" relative="1" as="geometry">
            <mxPoint x="-8.57" y="-21" as="offset" />
          </mxGeometry>
        </mxCell>
        <mxCell id="Al2MoPoiKQMAoQII0xVr-14" value="&lt;font style=&quot;font-size: 12px&quot;&gt;{[0-9],[a-f],[A-F]}&lt;/font&gt;" style="endArrow=classic;html=1;fontSize=17;exitX=0.5;exitY=0;exitDx=0;exitDy=0;entryX=0.5;entryY=1;entryDx=0;entryDy=0;" edge="1" parent="1" source="Al2MoPoiKQMAoQII0xVr-11" target="Al2MoPoiKQMAoQII0xVr-4">
          <mxGeometry x="-0.1111" y="-10" width="50" height="50" relative="1" as="geometry">
            <mxPoint x="280" y="560" as="sourcePoint" />
            <mxPoint x="330" y="510" as="targetPoint" />
            <mxPoint as="offset" />
          </mxGeometry>
        </mxCell>
        <mxCell id="Al2MoPoiKQMAoQII0xVr-15" value="" style="endArrow=classic;html=1;fontSize=17;exitX=1;exitY=0;exitDx=0;exitDy=0;" edge="1" parent="1" source="Al2MoPoiKQMAoQII0xVr-4">
          <mxGeometry width="50" height="50" relative="1" as="geometry">
            <mxPoint x="260" y="520" as="sourcePoint" />
            <mxPoint x="190" y="530" as="targetPoint" />
          </mxGeometry>
        </mxCell>
        <mxCell id="Al2MoPoiKQMAoQII0xVr-16" value="{[0-9],[a-f],[A-F]}" style="edgeLabel;html=1;align=center;verticalAlign=middle;resizable=0;points=[];fontSize=11;" vertex="1" connectable="0" parent="Al2MoPoiKQMAoQII0xVr-15">
          <mxGeometry x="0.2137" y="1" relative="1" as="geometry">
            <mxPoint x="-17.67" as="offset" />
          </mxGeometry>
        </mxCell>
        <mxCell id="Al2MoPoiKQMAoQII0xVr-17" value="ASCI &amp;gt; 31" style="curved=1;endArrow=classic;html=1;fontSize=11;exitX=0;exitY=0;exitDx=0;exitDy=0;entryX=0.5;entryY=0;entryDx=0;entryDy=0;" edge="1" parent="1" source="Al2MoPoiKQMAoQII0xVr-2" target="Al2MoPoiKQMAoQII0xVr-2">
          <mxGeometry x="-0.2218" y="-21" width="50" height="50" relative="1" as="geometry">
            <mxPoint x="260" y="520" as="sourcePoint" />
            <mxPoint x="310" y="470" as="targetPoint" />
            <Array as="points">
              <mxPoint x="190" y="490" />
              <mxPoint x="213" y="490" />
            </Array>
            <mxPoint x="7" y="-41" as="offset" />
          </mxGeometry>
        </mxCell>
        <mxCell id="Al2MoPoiKQMAoQII0xVr-18" value="String&lt;br&gt;End" style="ellipse;whiteSpace=wrap;html=1;" vertex="1" parent="1">
          <mxGeometry x="50" y="500" width="40" height="40" as="geometry" />
        </mxCell>
        <mxCell id="Al2MoPoiKQMAoQII0xVr-19" value="&lt;font style=&quot;font-size: 14px&quot;&gt;&quot;&lt;/font&gt;" style="endArrow=classic;html=1;fontSize=11;entryX=1;entryY=0.5;entryDx=0;entryDy=0;" edge="1" parent="1" target="Al2MoPoiKQMAoQII0xVr-20">
          <mxGeometry x="-0.024" y="-11" width="50" height="50" relative="1" as="geometry">
            <mxPoint x="192" y="521" as="sourcePoint" />
            <mxPoint x="100" y="520" as="targetPoint" />
            <mxPoint as="offset" />
          </mxGeometry>
        </mxCell>
        <mxCell id="Al2MoPoiKQMAoQII0xVr-29" value="{E,e}" style="edgeStyle=orthogonalEdgeStyle;rounded=0;orthogonalLoop=1;jettySize=auto;html=1;fontSize=11;exitX=1;exitY=0.5;exitDx=0;exitDy=0;entryX=0;entryY=0.5;entryDx=0;entryDy=0;" edge="1" parent="1" source="Al2MoPoiKQMAoQII0xVr-41" target="Al2MoPoiKQMAoQII0xVr-27">
          <mxGeometry x="0.0811" y="10" relative="1" as="geometry">
            <mxPoint x="550" y="420" as="sourcePoint" />
            <mxPoint x="577" y="420" as="targetPoint" />
            <Array as="points" />
            <mxPoint as="offset" />
          </mxGeometry>
        </mxCell>
        <mxCell id="Al2MoPoiKQMAoQII0xVr-22" value="Integer" style="ellipse;whiteSpace=wrap;html=1;" vertex="1" parent="1">
          <mxGeometry x="500" y="400" width="40" height="40" as="geometry" />
        </mxCell>
        <mxCell id="Al2MoPoiKQMAoQII0xVr-24" value="[1-9]" style="endArrow=classic;html=1;fontSize=11;exitX=1;exitY=0.5;exitDx=0;exitDy=0;entryX=0;entryY=0.5;entryDx=0;entryDy=0;" edge="1" parent="1" source="Al2MoPoiKQMAoQII0xVr-1" target="Al2MoPoiKQMAoQII0xVr-41">
          <mxGeometry x="-0.0909" y="10" width="50" height="50" relative="1" as="geometry">
            <mxPoint x="280" y="530" as="sourcePoint" />
            <mxPoint x="490" y="420" as="targetPoint" />
            <mxPoint as="offset" />
          </mxGeometry>
        </mxCell>
        <mxCell id="Al2MoPoiKQMAoQII0xVr-25" value="[0-9]" style="curved=1;endArrow=classic;html=1;fontSize=11;entryX=0.418;entryY=1.061;entryDx=0;entryDy=0;entryPerimeter=0;exitX=1;exitY=1;exitDx=0;exitDy=0;" edge="1" parent="1" source="Al2MoPoiKQMAoQII0xVr-41" target="Al2MoPoiKQMAoQII0xVr-22">
          <mxGeometry x="-0.624" y="10" width="50" height="50" relative="1" as="geometry">
            <mxPoint x="260" y="510" as="sourcePoint" />
            <mxPoint x="310" y="460" as="targetPoint" />
            <Array as="points">
              <mxPoint x="540" y="442" />
              <mxPoint x="530" y="450" />
            </Array>
            <mxPoint x="4" y="-7" as="offset" />
          </mxGeometry>
        </mxCell>
        <mxCell id="Al2MoPoiKQMAoQII0xVr-27" value="exponent" style="ellipse;whiteSpace=wrap;html=1;" vertex="1" parent="1">
          <mxGeometry x="580" y="400" width="60" height="40" as="geometry" />
        </mxCell>
        <mxCell id="Al2MoPoiKQMAoQII0xVr-32" value="sign" style="ellipse;whiteSpace=wrap;html=1;direction=south;" vertex="1" parent="1">
          <mxGeometry x="590" y="480" width="40" height="40" as="geometry" />
        </mxCell>
        <mxCell id="Al2MoPoiKQMAoQII0xVr-33" value="{+,-}" style="endArrow=classic;html=1;fontSize=11;entryX=0;entryY=0.5;entryDx=0;entryDy=0;" edge="1" parent="1" target="Al2MoPoiKQMAoQII0xVr-32">
          <mxGeometry x="-0.0256" y="10" width="50" height="50" relative="1" as="geometry">
            <mxPoint x="610" y="441" as="sourcePoint" />
            <mxPoint x="280" y="460" as="targetPoint" />
            <mxPoint as="offset" />
          </mxGeometry>
        </mxCell>
        <mxCell id="Al2MoPoiKQMAoQII0xVr-35" value="exponent2" style="ellipse;whiteSpace=wrap;html=1;direction=south;" vertex="1" parent="1">
          <mxGeometry x="485" y="485" width="60" height="40" as="geometry" />
        </mxCell>
        <mxCell id="Al2MoPoiKQMAoQII0xVr-36" value="(0-9)" style="endArrow=classic;html=1;fontSize=11;exitX=0.5;exitY=1;exitDx=0;exitDy=0;entryX=0.5;entryY=0;entryDx=0;entryDy=0;" edge="1" parent="1" source="Al2MoPoiKQMAoQII0xVr-32" target="Al2MoPoiKQMAoQII0xVr-39">
          <mxGeometry width="50" height="50" relative="1" as="geometry">
            <mxPoint x="260" y="510" as="sourcePoint" />
            <mxPoint x="310" y="460" as="targetPoint" />
          </mxGeometry>
        </mxCell>
        <mxCell id="Al2MoPoiKQMAoQII0xVr-37" value="(0-9)" style="endArrow=classic;html=1;fontSize=11;exitX=0;exitY=1;exitDx=0;exitDy=0;" edge="1" parent="1" source="Al2MoPoiKQMAoQII0xVr-27">
          <mxGeometry width="50" height="50" relative="1" as="geometry">
            <mxPoint x="260" y="510" as="sourcePoint" />
            <mxPoint x="540" y="490" as="targetPoint" />
          </mxGeometry>
        </mxCell>
        <mxCell id="Al2MoPoiKQMAoQII0xVr-38" value="" style="endArrow=classic;html=1;fontSize=11;" edge="1" parent="1">
          <mxGeometry width="50" height="50" relative="1" as="geometry">
            <mxPoint x="260" y="510" as="sourcePoint" />
            <mxPoint x="310" y="460" as="targetPoint" />
          </mxGeometry>
        </mxCell>
        <mxCell id="Al2MoPoiKQMAoQII0xVr-42" value="[0-9]" style="curved=1;endArrow=classic;html=1;fontSize=11;entryX=0;entryY=0.5;entryDx=0;entryDy=0;exitX=0;exitY=1;exitDx=0;exitDy=0;" edge="1" parent="1" source="Al2MoPoiKQMAoQII0xVr-39" target="Al2MoPoiKQMAoQII0xVr-39">
          <mxGeometry x="-0.3712" y="13" width="50" height="50" relative="1" as="geometry">
            <mxPoint x="547.6460175563564" y="445.9383384379993" as="sourcePoint" />
            <mxPoint x="526.72" y="452.43999999999994" as="targetPoint" />
            <Array as="points">
              <mxPoint x="480" y="460" />
              <mxPoint x="500" y="460" />
            </Array>
            <mxPoint as="offset" />
          </mxGeometry>
        </mxCell>
        <mxCell id="Al2MoPoiKQMAoQII0xVr-43" value="0" style="ellipse;whiteSpace=wrap;html=1;" vertex="1" parent="1">
          <mxGeometry x="500" y="330" width="40" height="40" as="geometry" />
        </mxCell>
        <mxCell id="Al2MoPoiKQMAoQII0xVr-44" value="" style="endArrow=classic;html=1;fontSize=11;entryX=0;entryY=0.5;entryDx=0;entryDy=0;exitX=1;exitY=0.5;exitDx=0;exitDy=0;" edge="1" parent="1" source="Al2MoPoiKQMAoQII0xVr-1" target="Al2MoPoiKQMAoQII0xVr-43">
          <mxGeometry width="50" height="50" relative="1" as="geometry">
            <mxPoint x="330" y="500" as="sourcePoint" />
            <mxPoint x="380" y="450" as="targetPoint" />
          </mxGeometry>
        </mxCell>
        <mxCell id="Al2MoPoiKQMAoQII0xVr-46" value="Decimal" style="ellipse;whiteSpace=wrap;html=1;" vertex="1" parent="1">
          <mxGeometry x="585" y="330" width="60" height="40" as="geometry" />
        </mxCell>
      </root>
    </mxGraphModel>
  </diagram>
</mxfile>
